# xmcd
#
# Track frame offsets: 
#        150
#        10698
#        23099
#        36267
#        50684
#        63415
#        76624
#        89176
#        102260
#        115018
#        127029
#        138479
#        151709
#        164248
#        176560
#        190525
#        204717
#        214242
#        223907
#        237559
#        251401
#        264232
#        277889
#        289121
#        300266
#        312645
#
# Disc length: 4325 seconds
#
# Revision: 0
# Processed by: cddbd v1.5.2PL0 Copyright (c) Steve Scherf et al.
# Submitted via: ExactAudioCopy v0.99pb4
#
DISCID=7810e31a
DTITLE=Various Artist - Acadian All Star Special
DYEAR=2011
DGENRE=Country
TTITLE0=Happy, Doc and The Boys - La Cravat
TTITLE1=Happy, Doc and The Boys - Gabriel Waltz
TTITLE2=Happy, Doc and The Boys - Don't Hang Around
TTITLE3=Happy, Doc and The Boys - My Sweetheart's My Buddy's Wife
TTITLE4=Happy, Doc and The Boys - Setre Chandelle
TTITLE5=Happy, Doc and The Boys - Allons Dance Colinda
TTITLE6=Happy, Doc and The Boys - Is It Too Late To Cry
TTITLE7=Happy, Doc and The Boys - Somehow You Don't Care
TTITLE8=Lee Sonnier and His Acadian All Stars - Dans Les Grand Meche
TTITLE9=Lee Sonnier and His Acadian All Stars - Chere Catan
TTITLE10=LeBlanc and Adams And The Vermillion Play Boys - Chere Petite B
TTITLE10=run
TTITLE11=LeBlanc and Adams And The Vermillion Play Boys - Vermillion Two
TTITLE11=Step
TTITLE12=Happy, Doc and The Boys - Fais Do Do Breakdown
TTITLE13=Happy, Doc and The Boys - Chere Cherie
TTITLE14=Happy, Doc and The Boys - New Jolie Blond
TTITLE15=Happy, Doc and The Boys - Dans La Platin
TTITLE16=Jimmy Durbin and The Country Boys - Drunkard Waltz
TTITLE17=Jimmy Durbin and The Country Boys - Fais Do Do Two Step
TTITLE18=Jimmy Choates and His Melody Boys - Chere Moon
TTITLE19=Jimmy Choates and His Melody Boys - Petite Negress
TTITLE20=Lee Sonnier and His Acadian All Stars - La Blues De Cajin
TTITLE21=Lee Sonnier and His Acadian All Stars - Chere Eci Et Cher Laba
TTITLE22=Happy, Doc and The Boys - Bayou LaFourche
TTITLE23=Happy, Doc and The Boys - Sothe Fermon
TTITLE24=Veteran Playboys - Eunice Waltz
TTITLE25=Veteran Playboys - Chinaball Special
EXTD=
EXTT0=
EXTT1=
EXTT2=
EXTT3=
EXTT4=
EXTT5=
EXTT6=
EXTT7=
EXTT8=
EXTT9=
EXTT10=
EXTT11=
EXTT12=
EXTT13=
EXTT14=
EXTT15=
EXTT16=
EXTT17=
EXTT18=
EXTT19=
EXTT20=
EXTT21=
EXTT22=
EXTT23=
EXTT24=
EXTT25=
PLAYORDER=
